<svg xmlns="http://www.w3.org/2000/svg" viewBox="0 0 16 16" fill="#b5ff6d" aria-hidden="true" id="Face-Smile--Streamline-Heroicons" height="16" width="16"><desc>Face Smile Streamline Icon: https://streamlinehq.com</desc><path fill-rule="evenodd" d="M8 1.5c-3.59 0 -6.5 2.91 -6.5 6.5s2.91 6.5 6.5 6.5 6.5 -2.91 6.5 -6.5S11.59 1.5 8 1.5Zm-1.75 4c-0.36 0 -0.5519999999999999 0.2793333333333333 -0.624 0.42266666666666663a1.3066666666666666 1.3066666666666666 0 0 0 -0.126 0.5773333333333333c0 0.19866666666666666 0.03933333333333333 0.4033333333333333 0.126 0.5773333333333333 0.072 0.1433333333333333 0.2633333333333333 0.42266666666666663 0.624 0.42266666666666663 0.36 0 0.5519999999999999 -0.2793333333333333 0.624 -0.42266666666666663 0.08666666666666667 -0.17333333333333334 0.126 -0.3786666666666666 0.126 -0.5773333333333333 0 -0.19866666666666666 -0.03933333333333333 -0.4033333333333333 -0.126 -0.5773333333333333 -0.072 -0.1433333333333333 -0.2633333333333333 -0.42266666666666663 -0.624 -0.42266666666666663Zm2.876 0.42266666666666663c0.072 -0.1433333333333333 0.2633333333333333 -0.42266666666666663 0.624 -0.42266666666666663 0.36 0 0.5519999999999999 0.2793333333333333 0.624 0.42266666666666663 0.08666666666666667 0.17333333333333334 0.126 0.3786666666666666 0.126 0.5773333333333333 0 0.19866666666666666 -0.03933333333333333 0.4033333333333333 -0.126 0.5773333333333333 -0.072 0.1433333333333333 -0.2633333333333333 0.42266666666666663 -0.624 0.42266666666666663 -0.36 0 -0.5519999999999999 -0.2793333333333333 -0.624 -0.42266666666666663a1.3066666666666666 1.3066666666666666 0 0 1 -0.126 -0.5773333333333333c0 -0.19866666666666666 0.03933333333333333 -0.4033333333333333 0.126 -0.5773333333333333Zm1.3486666666666667 4.552a0.5 0.5 0 1 0 -0.7066666666666667 -0.7066666666666667 2.5 2.5 0 0 1 -3.536 0 0.5 0.5 0 0 0 -0.7066666666666667 0.7066666666666667 3.5 3.5 0 0 0 4.949333333333334 0Z" clip-rule="evenodd" stroke-width="0.6667"></path></svg>