<svg version="1.1" id="Layer_1" xmlns="http://www.w3.org/2000/svg" xmlns:xlink="http://www.w3.org/1999/xlink" x="0px" y="0px"
	 width="100%" viewBox="0 0 500 500" enable-background="new 0 0 500 500" xml:space="preserve">
<path fill="#000000" opacity="1.000000" stroke="none" 
	d="
M270.000000,501.000000 
	C180.000015,501.000000 90.500046,501.000000 1.000048,501.000000 
	C1.000032,334.333405 1.000032,167.666794 1.000016,1.000138 
	C167.666565,1.000092 334.333130,1.000092 500.999756,1.000046 
	C500.999847,167.666519 500.999847,334.333038 500.999939,500.999786 
	C424.166656,501.000000 347.333344,501.000000 270.000000,501.000000 
M476.929077,251.462219 
	C476.614136,251.368164 476.299194,251.274109 475.226807,251.022797 
	C470.762054,248.672409 466.348419,246.217697 461.820221,243.996658 
	C455.426544,240.860626 448.907837,237.979370 442.515625,234.840485 
	C433.641113,230.482666 433.670074,230.423615 429.417419,239.107422 
	C426.744720,244.565002 427.531708,245.972885 434.060547,247.569916 
	C434.402435,247.667770 434.744354,247.765610 435.435150,248.005692 
	C435.435150,248.005692 435.811768,248.016098 436.146759,248.651184 
	C437.449158,249.048752 438.751587,249.446320 440.438568,249.992569 
	C440.438568,249.992569 440.849396,250.027603 441.183960,250.673218 
	C443.778778,251.820023 446.373596,252.966843 449.309357,254.765274 
	C452.702972,256.270233 456.096588,257.775177 459.490173,259.280151 
	C459.364441,259.775116 459.238708,260.270111 459.112976,260.765106 
	C448.329712,265.841064 437.546448,270.917053 426.614563,276.062988 
	C428.754517,281.155914 430.612122,285.576935 432.580536,290.261627 
	C447.553711,282.815460 462.285919,275.489136 477.792419,268.008728 
	C484.704254,266.255188 481.287750,260.652679 481.936279,256.634155 
	C482.519409,253.020721 479.519012,252.609146 477.033539,251.973328 
	C477.033539,251.973328 477.117096,251.975525 476.929077,251.462219 
M376.360046,201.183304 
	C376.288483,201.809891 376.216919,202.436478 376.009033,203.450012 
	C376.009033,203.450012 375.982697,203.859406 375.333435,204.216125 
	C374.610992,206.499359 373.888519,208.782593 373.020691,211.449768 
	C373.020691,211.449768 372.988312,211.859024 372.453430,212.068726 
	C372.354645,212.402908 372.255859,212.737076 372.005737,213.447357 
	C372.005737,213.447357 371.978088,213.851837 371.327789,214.207367 
	C370.940643,215.823471 370.553497,217.439575 369.822540,219.714035 
	C367.867218,224.810089 365.878662,229.893707 363.962463,235.004440 
	C356.888184,253.872223 349.821167,272.742798 342.785522,291.625031 
	C339.360565,300.816956 336.011078,310.037018 332.321289,320.077301 
	C336.838898,319.690857 340.852478,318.283875 344.096558,319.309906 
	C349.471191,321.009796 350.951355,319.089844 352.337494,314.439911 
	C354.868164,305.950775 357.869904,297.589050 360.985748,289.290833 
	C364.478302,279.989349 368.448944,270.867828 371.968689,261.575958 
	C376.381439,249.926575 380.569122,238.191574 384.811218,226.478027 
	C387.265411,219.701309 389.635559,212.894150 392.702057,205.749771 
	C393.565216,203.723373 394.428375,201.696960 395.562103,199.035309 
	C389.370148,199.035309 383.951141,198.979507 378.537201,199.119492 
	C377.981140,199.133865 377.455322,200.318436 376.981476,200.981186 
	C376.981476,200.981186 376.958984,200.915604 376.360046,201.183304 
M234.719589,206.173218 
	C230.754913,206.201370 232.031555,209.243591 232.026825,211.224045 
	C231.958130,240.016830 231.964401,268.809845 232.028412,297.602661 
	C232.031570,299.021576 232.728058,300.438934 233.763443,302.220276 
	C239.078751,302.220276 244.394058,302.220276 250.041229,302.220276 
	C250.041229,284.664337 250.041229,267.870453 250.718216,251.244751 
	C260.866333,265.722260 271.093781,280.145203 281.111420,294.712433 
	C283.907745,298.778687 286.445282,302.710846 292.138214,302.595490 
	C296.630493,302.504395 301.126068,302.577179 306.962219,302.577179 
	C294.923828,285.197937 283.930695,269.327698 272.835876,253.310654 
	C288.381989,241.369003 294.631958,224.968353 298.676788,207.188858 
	C295.240356,207.002487 291.812408,207.465118 288.827820,206.523087 
	C282.095825,204.398270 280.637085,208.454208 279.168823,213.438934 
	C274.690216,228.643768 268.258423,242.416672 251.999069,248.557999 
	C251.273743,248.831970 250.685272,249.468216 249.986664,249.006897 
	C249.986664,235.101776 249.986664,221.196671 249.986664,206.865326 
	C244.673370,206.865326 239.884048,206.865326 234.719589,206.173218 
M176.978653,254.386108 
	C176.657837,253.874863 176.337036,253.363617 175.982880,252.436264 
	C175.982880,252.436264 175.824036,252.050217 175.906570,251.501389 
	C175.613403,251.293503 175.320251,251.085632 174.982407,250.430649 
	C174.982407,250.430649 174.833679,250.006653 174.975662,249.363968 
	C174.657394,248.861816 174.339127,248.359665 173.987289,247.444565 
	C173.987289,247.444565 173.836075,247.058853 173.921768,246.495087 
	C173.620102,246.281723 173.318420,246.068359 172.982422,245.434570 
	C172.982422,245.434570 172.835358,245.039200 172.977570,244.391663 
	C172.663284,243.885910 172.348999,243.380173 172.003647,242.279205 
	C171.942749,241.889236 171.881851,241.499268 171.905319,240.531982 
	C171.606705,240.297882 171.308075,240.063766 171.000458,239.422440 
	C171.000458,239.422440 170.846054,239.045532 170.919067,238.498047 
	C170.626480,238.294189 170.333908,238.090332 170.006531,237.113556 
	C166.434311,227.640137 163.028610,218.096802 159.111908,208.768005 
	C158.518448,207.354553 155.615341,206.468857 153.659912,206.192383 
	C151.667221,205.910614 149.499786,207.046570 147.455597,206.901871 
	C144.773331,206.711975 143.827499,207.983078 142.985901,210.188950 
	C131.380783,240.606552 119.708740,270.998627 107.620239,302.525818 
	C112.710350,302.525818 117.385788,302.844391 121.971054,302.341217 
	C123.440262,302.179993 125.168579,300.078674 125.924248,298.465027 
	C129.106674,291.669342 131.966217,284.722443 135.879669,278.002777 
	C146.255920,277.945404 156.632156,277.888031 167.677689,278.187653 
	C170.124100,285.025635 172.467590,291.903778 175.104645,298.667419 
	C175.625687,300.003845 177.216171,301.765350 178.416290,301.848633 
	C183.517883,302.202576 188.658173,301.998962 194.469116,301.998962 
	C192.163406,295.771484 190.105484,290.106079 187.969940,284.470093 
	C184.621246,275.632294 181.220123,266.814392 177.983902,257.347443 
	C177.660492,256.847168 177.337082,256.346893 176.989059,255.427872 
	C176.989059,255.427872 176.844376,255.034149 176.978653,254.386108 
M56.005169,236.507355 
	C45.099171,241.763519 34.282928,247.219193 23.245909,252.184067 
	C18.382792,254.371689 20.453796,258.205841 20.009996,261.500305 
	C19.631300,264.311462 20.164249,266.360291 23.257566,267.786835 
	C34.573586,273.005402 45.699169,278.634949 56.958805,283.978333 
	C69.273438,289.822418 69.304207,289.759277 74.910011,277.029449 
	C74.965958,276.902405 74.879738,276.712769 74.775009,275.866608 
	C63.970310,270.882172 52.815895,265.736389 40.371960,259.995697 
	C52.136837,254.682907 62.399429,250.048508 73.187225,245.176926 
	C72.731842,242.769302 72.484978,240.008575 71.663658,237.430878 
	C70.051239,232.370331 66.765800,231.186798 61.896404,233.572739 
	C60.154030,234.426483 58.388786,235.233551 56.005169,236.507355 
z"/>
<path fill="#B6FD6E" opacity="1.000000" stroke="none" 
	d="
M134.943909,277.830872 
	C131.966217,284.722443 129.106674,291.669342 125.924248,298.465027 
	C125.168579,300.078674 123.440262,302.179993 121.971054,302.341217 
	C117.385788,302.844391 112.710350,302.525818 107.620239,302.525818 
	C119.708740,270.998627 131.380783,240.606552 142.985901,210.188950 
	C143.827499,207.983078 144.773331,206.711975 147.455597,206.901871 
	C149.499786,207.046570 151.667221,205.910614 153.659912,206.192383 
	C155.615341,206.468857 158.518448,207.354553 159.111908,208.768005 
	C163.028610,218.096802 166.434311,227.640137 170.126480,237.713654 
	C170.401947,238.594009 170.601822,238.837952 170.846054,239.045532 
	C170.846054,239.045532 171.000458,239.422440 171.096069,239.865540 
	C171.401428,240.575531 171.611191,240.842422 171.820953,241.109299 
	C171.881851,241.499268 171.942749,241.889236 172.042816,242.871658 
	C172.333099,243.989136 172.584229,244.514175 172.835358,245.039200 
	C172.835358,245.039200 172.982422,245.434570 173.101044,245.868118 
	C173.377411,246.592911 173.582886,246.845306 173.836075,247.058853 
	C173.836075,247.058853 173.987289,247.444565 174.031799,247.944733 
	C174.328766,248.965469 174.581223,249.486069 174.833679,250.006653 
	C174.833679,250.006653 174.982407,250.430649 175.104782,250.870575 
	C175.381653,251.592941 175.580612,251.839523 175.824036,252.050217 
	C175.824036,252.050217 175.982880,252.436264 176.026855,252.942657 
	C176.328659,253.977417 176.586517,254.505783 176.844376,255.034149 
	C176.844376,255.034149 176.989059,255.427872 177.025940,255.932129 
	C177.322266,256.953613 177.581741,257.470825 177.841217,257.988068 
	C181.220123,266.814392 184.621246,275.632294 187.969940,284.470093 
	C190.105484,290.106079 192.163406,295.771484 194.469116,301.998962 
	C188.658173,301.998962 183.517883,302.202576 178.416290,301.848633 
	C177.216171,301.765350 175.625687,300.003845 175.104645,298.667419 
	C172.467590,291.903778 170.124100,285.025635 166.990051,277.791992 
	C160.890472,277.250366 155.476440,276.938202 150.067215,277.006927 
	C145.023453,277.071014 139.984802,277.540070 134.943909,277.830872 
M151.519424,263.993744 
	C155.165070,263.993744 158.810715,263.993744 162.622620,263.993744 
	C158.903458,252.507919 155.235687,241.180786 151.567902,229.853638 
	C151.108582,229.867691 150.649246,229.881744 150.189911,229.895798 
	C146.562393,241.371826 142.934860,252.847855 139.411636,263.993896 
	C143.838669,263.993896 147.197739,263.993896 151.519424,263.993744 
z"/>
<path fill="#B6FC6F" opacity="1.000000" stroke="none" 
	d="
M375.982697,203.859406 
	C375.982697,203.859406 376.009033,203.450012 376.268188,203.028748 
	C376.671204,202.043518 376.815094,201.479553 376.958984,200.915604 
	C376.958984,200.915604 376.981476,200.981186 377.385010,200.977386 
	C380.386810,200.651840 382.976868,200.188858 385.585022,200.036713 
	C391.673309,199.681595 391.880188,199.933838 392.043518,206.100693 
	C389.635559,212.894150 387.265411,219.701309 384.811218,226.478027 
	C380.569122,238.191574 376.381439,249.926575 371.968689,261.575958 
	C368.448944,270.867828 364.478302,279.989349 360.985748,289.290833 
	C357.869904,297.589050 354.868164,305.950775 352.337494,314.439911 
	C350.951355,319.089844 349.471191,321.009796 344.096558,319.309906 
	C340.852478,318.283875 336.838898,319.690857 332.321289,320.077301 
	C336.011078,310.037018 339.360565,300.816956 342.785522,291.625031 
	C349.821167,272.742798 356.888184,253.872223 363.962463,235.004440 
	C365.878662,229.893707 367.867218,224.810089 370.322113,219.229126 
	C371.207153,217.113434 371.592621,215.482635 371.978088,213.851837 
	C371.978088,213.851837 372.005737,213.447357 372.257324,213.084000 
	C372.717804,212.460724 372.877594,212.173523 372.988312,211.859024 
	C372.988312,211.859024 373.020691,211.449768 373.413452,211.113647 
	C374.531708,208.471497 375.257202,206.165451 375.982697,203.859406 
z"/>
<path fill="#B6FC6F" opacity="1.000000" stroke="none" 
	d="
M250.033066,249.935730 
	C250.685272,249.468216 251.273743,248.831970 251.999069,248.557999 
	C268.258423,242.416672 274.690216,228.643768 279.168823,213.438934 
	C280.637085,208.454208 282.095825,204.398270 288.827820,206.523087 
	C291.812408,207.465118 295.240356,207.002487 298.676788,207.188858 
	C294.631958,224.968353 288.381989,241.369003 272.835876,253.310654 
	C283.930695,269.327698 294.923828,285.197937 306.962219,302.577179 
	C301.126068,302.577179 296.630493,302.504395 292.138214,302.595490 
	C286.445282,302.710846 283.907745,298.778687 281.111420,294.712433 
	C271.093781,280.145203 260.866333,265.722260 250.375687,250.875534 
	C250.033127,250.316116 250.033096,250.125931 250.033066,249.935730 
z"/>
<path fill="#B6FC70" opacity="1.000000" stroke="none" 
	d="
M250.009857,249.471313 
	C250.033096,250.125931 250.033127,250.316116 250.037201,250.791443 
	C250.041229,267.870453 250.041229,284.664337 250.041229,302.220276 
	C244.394058,302.220276 239.078751,302.220276 233.415451,301.579407 
	C233.059586,272.067657 233.001434,243.196533 233.132965,214.326294 
	C233.144318,211.836380 234.411102,209.352173 235.094711,206.865326 
	C239.884048,206.865326 244.673370,206.865326 249.986664,206.865326 
	C249.986664,221.196671 249.986664,235.101776 250.009857,249.471313 
z"/>
<path fill="#B6FC6F" opacity="1.000000" stroke="none" 
	d="
M56.319576,236.284637 
	C58.388786,235.233551 60.154030,234.426483 61.896404,233.572739 
	C66.765800,231.186798 70.051239,232.370331 71.663658,237.430878 
	C72.484978,240.008575 72.731842,242.769302 73.187225,245.176926 
	C62.399429,250.048508 52.136837,254.682907 40.371960,259.995697 
	C52.815895,265.736389 63.970310,270.882172 74.775009,275.866608 
	C74.879738,276.712769 74.965958,276.902405 74.910011,277.029449 
	C69.304207,289.759277 69.273438,289.822418 56.958805,283.978333 
	C45.699169,278.634949 34.573586,273.005402 23.257566,267.786835 
	C20.164249,266.360291 19.631300,264.311462 20.009996,261.500305 
	C20.453796,258.205841 18.382792,254.371689 23.245909,252.184067 
	C34.282928,247.219193 45.099171,241.763519 56.319576,236.284637 
z"/>
<path fill="#B7FC70" opacity="1.000000" stroke="none" 
	d="
M435.811768,248.016113 
	C435.811768,248.016098 435.435150,248.005692 435.081573,247.755356 
	C434.433319,247.345566 434.138672,247.186127 433.844025,247.026672 
	C427.531708,245.972885 426.744720,244.565002 429.417419,239.107422 
	C433.670074,230.423615 433.641113,230.482666 442.515625,234.840485 
	C448.907837,237.979370 455.426544,240.860626 461.820221,243.996658 
	C466.348419,246.217697 470.762054,248.672409 475.769226,251.267517 
	C476.554932,251.710403 476.823425,251.864838 477.117096,251.975525 
	C477.117096,251.975525 477.033539,251.973328 477.125092,252.276794 
	C478.460876,254.955307 480.800415,257.391266 480.672546,259.690002 
	C480.512177,262.573090 478.328522,265.343628 477.018127,268.162781 
	C462.285919,275.489136 447.553711,282.815460 432.580536,290.261627 
	C430.612122,285.576935 428.754517,281.155914 426.614563,276.062988 
	C437.546448,270.917053 448.329712,265.841064 459.112976,260.765106 
	C459.238708,260.270111 459.364441,259.775116 459.490173,259.280151 
	C456.096588,257.775177 452.702972,256.270233 449.056549,254.091888 
	C446.152283,252.288208 443.500854,251.157913 440.849396,250.027603 
	C440.849396,250.027603 440.438568,249.992569 440.098480,249.597076 
	C438.442841,248.806427 437.127319,248.411270 435.811768,248.016113 
z"/>
<path fill="#BEEE8A" opacity="1.000000" stroke="none" 
	d="
M234.907150,206.519272 
	C234.411102,209.352173 233.144318,211.836380 233.132965,214.326294 
	C233.001434,243.196533 233.059586,272.067657 233.084579,301.397766 
	C232.728058,300.438934 232.031570,299.021576 232.028412,297.602661 
	C231.964401,268.809845 231.958130,240.016830 232.026825,211.224045 
	C232.031555,209.243591 230.754913,206.201370 234.907150,206.519272 
z"/>
<path fill="#BEEE8A" opacity="1.000000" stroke="none" 
	d="
M392.372803,205.925232 
	C391.880188,199.933838 391.673309,199.681595 385.585022,200.036713 
	C382.976868,200.188858 380.386810,200.651840 377.351990,200.966797 
	C377.455322,200.318436 377.981140,199.133865 378.537201,199.119492 
	C383.951141,198.979507 389.370148,199.035309 395.562103,199.035309 
	C394.428375,201.696960 393.565216,203.723373 392.372803,205.925232 
z"/>
<path fill="#BEEE8A" opacity="1.000000" stroke="none" 
	d="
M135.411789,277.916809 
	C139.984802,277.540070 145.023453,277.071014 150.067215,277.006927 
	C155.476440,276.938202 160.890472,277.250366 166.655411,277.613495 
	C156.632156,277.888031 146.255920,277.945404 135.411789,277.916809 
z"/>
<path fill="#BEEE8A" opacity="1.000000" stroke="none" 
	d="
M477.405273,268.085754 
	C478.328522,265.343628 480.512177,262.573090 480.672546,259.690002 
	C480.800415,257.391266 478.460876,254.955307 477.127625,252.235077 
	C479.519012,252.609146 482.519409,253.020721 481.936279,256.634155 
	C481.287750,260.652679 484.704254,266.255188 477.405273,268.085754 
z"/>
<path fill="#BEEE8A" opacity="1.000000" stroke="none" 
	d="
M441.016663,250.350403 
	C443.500854,251.157913 446.152283,252.288208 448.886078,253.766083 
	C446.373596,252.966843 443.778778,251.820023 441.016663,250.350403 
z"/>
<path fill="#BEEE8A" opacity="1.000000" stroke="none" 
	d="
M375.658081,204.037766 
	C375.257202,206.165451 374.531708,208.471497 373.486145,210.921692 
	C373.888519,208.782593 374.610992,206.499359 375.658081,204.037766 
z"/>
<path fill="#BEEE8A" opacity="1.000000" stroke="none" 
	d="
M371.652954,214.029602 
	C371.592621,215.482635 371.207153,217.113434 370.494019,218.899948 
	C370.553497,217.439575 370.940643,215.823471 371.652954,214.029602 
z"/>
<path fill="#BEEE8A" opacity="1.000000" stroke="none" 
	d="
M435.979248,248.333649 
	C437.127319,248.411270 438.442841,248.806427 439.906189,249.522736 
	C438.751587,249.446320 437.449158,249.048752 435.979248,248.333649 
z"/>
<path fill="#BEEE8A" opacity="1.000000" stroke="none" 
	d="
M376.659515,201.049454 
	C376.815094,201.479553 376.671204,202.043518 376.336334,202.835266 
	C376.216919,202.436478 376.288483,201.809891 376.659515,201.049454 
z"/>
<path fill="#BEEE8A" opacity="1.000000" stroke="none" 
	d="
M177.912567,257.667755 
	C177.581741,257.470825 177.322266,256.953613 177.038239,256.141479 
	C177.337082,256.346893 177.660492,256.847168 177.912567,257.667755 
z"/>
<path fill="#BEEE8A" opacity="1.000000" stroke="none" 
	d="
M176.911514,254.710129 
	C176.586517,254.505783 176.328659,253.977417 176.043518,253.150696 
	C176.337036,253.363617 176.657837,253.874863 176.911514,254.710129 
z"/>
<path fill="#BEEE8A" opacity="1.000000" stroke="none" 
	d="
M174.904663,249.685303 
	C174.581223,249.486069 174.328766,248.965469 174.048584,248.151184 
	C174.339127,248.359665 174.657394,248.861816 174.904663,249.685303 
z"/>
<path fill="#BEEE8A" opacity="1.000000" stroke="none" 
	d="
M172.906464,244.715424 
	C172.584229,244.514175 172.333099,243.989136 172.058350,243.169266 
	C172.348999,243.380173 172.663284,243.885910 172.906464,244.715424 
z"/>
<path fill="#BEEE8A" opacity="1.000000" stroke="none" 
	d="
M433.952271,247.298309 
	C434.138672,247.186127 434.433319,247.345566 434.907104,247.684235 
	C434.744354,247.765610 434.402435,247.667770 433.952271,247.298309 
z"/>
<path fill="#BEEE8A" opacity="1.000000" stroke="none" 
	d="
M175.865295,251.775803 
	C175.580612,251.839523 175.381653,251.592941 175.127121,251.094116 
	C175.320251,251.085632 175.613403,251.293503 175.865295,251.775803 
z"/>
<path fill="#BEEE8A" opacity="1.000000" stroke="none" 
	d="
M477.023071,251.718872 
	C476.823425,251.864838 476.554932,251.710403 476.147949,251.346130 
	C476.299194,251.274109 476.614136,251.368164 477.023071,251.718872 
z"/>
<path fill="#BEEE8A" opacity="1.000000" stroke="none" 
	d="
M173.878922,246.776978 
	C173.582886,246.845306 173.377411,246.592911 173.118210,246.078339 
	C173.318420,246.068359 173.620102,246.281723 173.878922,246.776978 
z"/>
<path fill="#BEEE8A" opacity="1.000000" stroke="none" 
	d="
M171.863129,240.820648 
	C171.611191,240.842422 171.401428,240.575531 171.100555,240.069153 
	C171.308075,240.063766 171.606705,240.297882 171.863129,240.820648 
z"/>
<path fill="#BEEE8A" opacity="1.000000" stroke="none" 
	d="
M170.882568,238.771790 
	C170.601822,238.837952 170.401947,238.594009 170.143890,238.100098 
	C170.333908,238.090332 170.626480,238.294189 170.882568,238.771790 
z"/>
<path fill="#BEEE8A" opacity="1.000000" stroke="none" 
	d="
M372.720886,211.963867 
	C372.877594,212.173523 372.717804,212.460724 372.333008,212.895950 
	C372.255859,212.737076 372.354645,212.402908 372.720886,211.963867 
z"/>
<path fill="#000000" opacity="1.000000" stroke="none" 
	d="
M151.038116,263.993835 
	C147.197739,263.993896 143.838669,263.993896 139.411636,263.993896 
	C142.934860,252.847855 146.562393,241.371826 150.189911,229.895798 
	C150.649246,229.881744 151.108582,229.867691 151.567902,229.853638 
	C155.235687,241.180786 158.903458,252.507919 162.622620,263.993744 
	C158.810715,263.993744 155.165070,263.993744 151.038116,263.993835 
z"/>
</svg>