<svg xmlns="http://www.w3.org/2000/svg" fill="none" viewBox="0 0 48 48" id="Grid--Streamline-Ionic-Filled" height="48" width="48"><desc>Grid Streamline Icon: https://streamlinehq.com</desc><path fill="#b5ff6d" d="M18.5405 22.3198h-14.28c-1.0025 0 -1.9639 -0.3982 -2.6728 -1.1071 -0.7089 -0.7089 -1.1072 -1.6703 -1.1072 -2.6728V4.26c0 -1.0025 0.3983 -1.964 1.1072 -2.6729C2.2966 0.8782 3.258 0.48 4.2605 0.48h14.28c1.0025 0 1.9639 0.3982 2.6728 1.1071s1.1071 1.6704 1.1071 2.6729v14.2799c0 1.0025 -0.3983 1.9639 -1.1071 2.6728s-1.6703 1.1071 -2.6728 1.1071Z" stroke-width="1"></path><path fill="#b5ff6d" d="M43.7395 22.3198h-14.28c-1.0025 0 -1.9639 -0.3982 -2.6727 -1.1071s-1.1072 -1.6703 -1.1072 -2.6728V4.26c0 -1.0025 0.3983 -1.964 1.1072 -2.6729S28.457 0.48 29.4595 0.48h14.28c1.0026 0 1.964 0.3982 2.6728 1.1071s1.1072 1.6704 1.1072 2.6729v14.2799c0 1.0025 -0.3983 1.9639 -1.1072 2.6728s-1.6702 1.1071 -2.6728 1.1071Z" stroke-width="1"></path><path fill="#b5ff6d" d="M18.5405 47.52h-14.28c-1.0025 0 -1.9639 -0.3983 -2.6728 -1.1071C0.8788 45.704 0.4805 44.7426 0.4805 43.7401v-14.28c0 -1.0025 0.3983 -1.9639 1.1072 -2.6728 0.7089 -0.7088 1.6703 -1.1071 2.6728 -1.1071h14.28c1.0025 0 1.9639 0.3982 2.6728 1.1071s1.1071 1.6703 1.1071 2.6728v14.28c0 1.0025 -0.3983 1.9639 -1.1071 2.6728S19.543 47.52 18.5405 47.52Z" stroke-width="1"></path><path fill="#b5ff6d" d="M43.7395 47.52h-14.28c-1.0025 0 -1.9639 -0.3983 -2.6727 -1.1071s-1.1072 -1.6703 -1.1072 -2.6728v-14.28c0 -1.0025 0.3983 -1.9639 1.1072 -2.6728s1.6702 -1.1071 2.6727 -1.1071h14.28c1.0026 0 1.964 0.3982 2.6728 1.1071s1.1072 1.6703 1.1072 2.6728v14.28c0 1.0025 -0.3983 1.9639 -1.1072 2.6728S44.7421 47.52 43.7395 47.52Z" stroke-width="1"></path></svg>