<svg xmlns="http://www.w3.org/2000/svg" viewBox="-0.5 -0.5 16 16" fill="none" stroke="#b5ff6d" stroke-linecap="round" stroke-linejoin="round" id="User-Star--Streamline-Tabler" height="16" width="16"><desc>User Star Streamline Icon: https://streamlinehq.com</desc><path d="M5 4.375a2.5 2.5 0 1 0 5 0 2.5 2.5 0 0 0 -5 0" stroke-width="1"></path><path d="M3.75 13.125v-1.25a2.5 2.5 0 0 1 2.5 -2.5h0.3125" stroke-width="1"></path><path d="m11.125 13.010625000000001 -1.3575000000000002 0.7112499999999999a0.245 0.245 0 0 1 -0.355 -0.25625l0.25937499999999997 -1.506875 -1.098125 -1.066875a0.243125 0.243125 0 0 1 0.135625 -0.415625l1.5175 -0.21999999999999997 0.6787500000000001 -1.370625a0.245 0.245 0 0 1 0.43875 0l0.6787500000000001 1.370625 1.5175 0.21999999999999997a0.24375000000000002 0.24375000000000002 0 0 1 0.135625 0.415625l-1.098125 1.066875 0.25875 1.50625a0.24375000000000002 0.24375000000000002 0 0 1 -0.354375 0.25687499999999996L11.125 13.010625000000001z" stroke-width="1"></path></svg>